<svg width="294" height="294" viewBox="0 0 294 294" fill="none" xmlns="http://www.w3.org/2000/svg">
<rect width="294" height="294" rx="36" fill="#39AC60"/>
<path d="M36 239.5V57H128.5V93H71.5V123.5H137V54H203C203 54 258 54 258 93C258 97 257.5 106.5 257.5 106.5H215.5V97C215.5 83.5 200.5 84 200.5 84H183V122.5H232.5L108.5 239.5H36Z" fill="white"/>
<path d="M161.5 239.5H124.5H119L242.5 122.5H252V172L240.5 160.5L161.5 239.5Z" fill="white"/>
<path d="M181.5 228L170 239.5H181.5V228Z" fill="white"/>
<path d="M183 152H201.5L183 169.5V152Z" fill="#39AC60"/>
<path d="M137 151.5V203H71.5V151.5H137Z" fill="#39AC60"/>
</svg>
